# This file uses centimeters as units for non-parametric coordinates.

g default
v -0.000005 12.005749 -12.005771
v -0.000005 12.005749 -0.000041
v -12.005736 12.005749 -0.000041
v -12.005747 0.000000 -0.000021
v 0.000000 0.000000 0.000000
v -12.005736 12.005749 -12.005771
v -12.005742 0.000000 -12.005792
v 0.000005 0.000000 -12.005771
vt 0.382026 0.618823
vt 0.382026 0.267149
vt 0.733754 0.267149
vt 0.733753 0.618823
vt 0.733702 0.638550
vt 0.733702 0.990224
vt 0.382026 0.990224
vt 0.382026 0.638550
vt 0.382026 0.267148
vt 0.733754 0.267148
vt 0.733753 0.618823
vt 0.382026 0.618823
vt 0.733702 0.638550
vt 0.733702 0.990224
vt 0.382026 0.990224
vt 0.382026 0.638550
vt 0.009995 0.618823
vt 0.009993 0.267149
vt 0.361669 0.267149
vt 0.361668 0.618823
vn -1.000000 0.000001 -0.000000
vn -1.000000 0.000001 -0.000000
vn -1.000000 0.000001 -0.000000
vn -1.000000 0.000001 -0.000000
vn -0.000001 0.000003 1.000000
vn -0.000001 0.000003 1.000000
vn -0.000001 0.000003 1.000000
vn -0.000001 0.000003 1.000000
vn 1.000000 0.000001 0.000000
vn 1.000000 0.000001 0.000000
vn 1.000000 0.000001 0.000000
vn 1.000000 0.000001 0.000000
vn 0.000001 0.000001 -1.000000
vn 0.000001 0.000001 -1.000000
vn 0.000001 0.000001 -1.000000
vn 0.000001 0.000001 -1.000000
vn 0.000000 1.000000 0.000000
vn 0.000000 1.000000 0.000000
vn 0.000000 1.000000 0.000000
vn 0.000000 1.000000 0.000000
s off
g Level_15_04cube:polySurface164 Level_15_04cube:polySurface156
f 6/1/1 7/2/2 4/3/3 3/4/4
f 5/5/5 2/6/6 3/7/7 4/8/8
f 5/9/9 8/10/10 1/11/11 2/12/12
f 7/13/13 6/14/14 1/15/15 8/16/16
f 1/17/17 6/18/18 3/19/19 2/20/20
